<svg xmlns="http://www.w3.org/2000/svg" xmlns:svgjs="http://svgjs.com/svgjs" xmlns:xlink="http://www.w3.org/1999/xlink" width="288" height="288"><path fill="#d85b53" d="M 144,0 C 5,0 0,5 0,144 0,283 5,288 144,288 283,288 288,283 288,144 288,5 283,0 144,0 Z" transform="translate(30.01 30.01) scale(.7916)"/><svg xmlns="http://www.w3.org/2000/svg" width="288" height="288" transform="translate(77.011 77.008) scale(.4652)" viewBox="0 0 24 24"><path d="M12.669 21.837h4.363c-.668-.354-.904-1.298-.943-2.203-.432-4.092-2.712-7.279-3.262-8.105C15.415 9.973 16.56 7.59 16.56 5.39c0-3.659-3.223-5.39-6.014-5.39h-7.35c.275.393.472.551.472 1.456v18.65c0 .905-.393 1.338-.668 1.731h3.341c-.275-.393-.668-.826-.668-1.731v-6.847c2.252-.036 4.133-.409 5.641-1.009 2.298 2.465 2.573 6.046 2.612 7.03.04.983-.471 1.848-1.257 2.557zM5.673 11.568V1.298h4.323c2.987 0 3.97 1.889 3.93 3.895-.196 5.548-5.699 6.375-8.253 6.375z" class="color000 svgShape"/><path d="M9.602 15.423a19.764 19.764 0 0 0 2.91-.25c-.119-.399-.551-1.265-.768-1.622-.803.136-1.551.18-2.141.18v-.433c-.275.098-1.494.275-2.005.334v8.636c0 .905-.393 1.338-.668 1.731h3.341c-.275-.393-.668-.826-.668-1.731l-.001-6.845zm3.539-12.022H9.604v7.043c-.452.157-1.356.452-2.005.511V3.558c0-.905-.197-1.062-.472-1.456h4.893c.394.237.925.807 1.121 1.299zm3.946 1.255c.598.72.827 1.682.808 2.674-.106 3.006-1.77 4.625-3.679 5.479.28.423.631 1.223.848 1.659.054-.021.225-.081.278-.102 2.298 2.465 2.514 6.065 2.553 7.049.039.984-.472 1.849-1.258 2.558H21c-.668-.354-.904-1.299-.943-2.203-.432-4.092-2.712-7.279-3.262-8.105 2.589-1.555 3.734-3.938 3.734-6.138 0-2.887-2.066-4.594-4.283-5.177.175.297.662 1.265.841 2.306z" class="color000 svgShape"/></svg></svg>